<?xml version="1.0" encoding="UTF-8"?>
<svg xmlns="http://www.w3.org/2000/svg" viewBox="0 0 1400 1900" width="1400" height="1900" font-family="-apple-system, BlinkMacSystemFont, 'Segoe UI', Roboto, Inter, Arial, sans-serif">
  <!--
    J.A.R.V.I.S · Industrial Knowledge Intelligence — System Architecture (C4)
    Levels shown:
      • Level 1 — System Context  (users, platform, external systems)
      • Level 2 — Container View  (frontend, backend services, datastores, vault, GBrain sidecar,
                                       external LLM providers)
    Color-coded 6-stage data flow (numbered 1–6) is overlaid on the container view:
         1 Ingest  →  2 Embed  →  3 Store (Qdrant)  →  4 Retrieve  →  5 Reason (LLM)  →  6 Render (Frontend)

    Source-of-truth references are documented in docs/architecture/README.md.
  -->

  <defs>
    <!-- 6-stage palette (pipeline stages) -->
    <style>
      .bg             { fill: #fafbfc; }
      .title          { font-size: 30px; font-weight: 700; fill: #0b1220; letter-spacing: 0.2px; }
      .subtitle       { font-size: 15px; font-weight: 500; fill: #475569; }
      .section-label  { font-size: 13px; font-weight: 700; fill: #0b1220; letter-spacing: 2px; text-transform: uppercase; }
      .section-sub    { font-size: 12px; font-weight: 400; fill: #64748b; }
      .pill-num       { font-size: 18px; font-weight: 700; fill: #ffffff; }
      .pill-title     { font-size: 14px; font-weight: 700; fill: #ffffff; }
      .pill-sub       { font-size: 11px; font-weight: 500; fill: #ffffff; opacity: 0.92; }
      .box-title      { font-size: 14px; font-weight: 700; fill: #0b1220; }
      .box-sub        { font-size: 11.5px; font-weight: 400; fill: #475569; }
      .box-mono       { font-family: 'JetBrains Mono', 'Consolas', 'Courier New', monospace; font-size: 11px; fill: #1e293b; }
      .label-stage    { font-size: 10.5px; font-weight: 700; fill: #ffffff; }
      .label-tech     { font-size: 10.5px; font-weight: 500; fill: #334155; }
      .legend-title   { font-size: 11px; font-weight: 700; fill: #0b1220; letter-spacing: 1.5px; }

      /* C4 box stroke & fill defaults */
      .c4-stroke      { stroke: #0f172a; stroke-width: 1.6; }
      .c4-rect        { rx: 10; ry: 10; fill: #ffffff; }
      .c4-band        { rx: 12; ry: 12; }

      /* Stage colors (pipeline order) */
      .s1 { fill: #1d4ed8; }       /* 1 Ingest  — blue */
      .s2 { fill: #0ea5e9; }       /* 2 Embed   — sky  */
      .s3 { fill: #7c3aed; }       /* 3 Store   — violet */
      .s4 { fill: #db2777; }       /* 4 Retrieve — pink */
      .s5 { fill: #ea580c; }       /* 5 Reason   — orange */
      .s6 { fill: #16a34a; }       /* 6 Render   — green */
      .s1-soft { fill: #dbeafe; } .s1-line  { stroke: #1d4ed8; }
      .s2-soft { fill: #e0f2fe; } .s2-line  { stroke: #0ea5e9; }
      .s3-soft { fill: #ede9fe; } .s3-line  { stroke: #7c3aed; }
      .s4-soft { fill: #fce7f3; } .s4-line  { stroke: #db2777; }
      .s5-soft { fill: #ffedd5; } .s5-line  { stroke: #ea580c; }
      .s6-soft { fill: #dcfce7; } .s6-line  { stroke: #16a34a; }
   </style>

    <!-- 6 arrowhead markers (one per stage color) -->
    <marker id="ah1" viewBox="0 0 10 10" refX="9" refY="5" markerWidth="7" markerHeight="7" orient="auto-start-reverse"><path d="M0,0 L10,5 L0,10 z" fill="#1d4ed8"</marker>
    <marker id="ah2" viewBox="0 0 10 10" refX="9" refY="5" markerWidth="7" markerHeight="7" orient="auto-start-reverse"><path d="M0,0 L10,5 L0,10 z" fill="#0ea5e9"</marker>
    <marker id="ah3" viewBox="0 0 10 10" refX="9" refY="5" markerWidth="7" markerHeight="7" orient="auto-start-reverse"><path d="M0,0 L10,5 L0,10 z" fill="#7c3aed"</marker>
    <marker id="ah4" viewBox="0 0 10 10" refX="9" refY="5" markerWidth="7" markerHeight="7" orient="auto-start-reverse"><path d="M0,0 L10,5 L0,10 z" fill="#db2777"</marker>
    <marker id="ah5" viewBox="0 0 10 10" refX="9" refY="5" markerWidth="7" markerHeight="7" orient="auto-start-reverse"><path d="M0,0 L10,5 L0,10 z" fill="#ea580c"</marker>
    <marker id="ah6" viewBox="0 0 10 10" refX="9" refY="5" markerWidth="7" markerHeight="7" orient="auto-start-reverse"><path d="M0,0 L10,5 L0,10 z" fill="#16a34a"</marker>
    <marker id="ah-mute" viewBox="0 0 10 10" refX="9" refY="5" markerWidth="7" markerHeight="7" orient="auto-start-reverse"><path d="M0,0 L10,5 L0,10 z" fill="#64748b"</marker>
    <marker id="ah-grey-stroke" viewBox="0 0 10 10" refX="9" refY="5" markerWidth="7" markerHeight="7" orient="auto-start-reverse"><path d="M0,0 L10,5 L0,10 z" fill="#94a3b8"</marker>
 </defs>

  <rect class="bg" x="0" y="0" width="1400" height="1900"/>

  <!-- ============================== HEADER ============================== -->
  <text class="title"    x="50" y="48">J.A.R.V.I.S · System Architecture</text>
  <text class="subtitle" x="50" y="72">Industrial Knowledge Intelligence  ·  C4 (Context + Container)  ·  ET AI Hackathon 2026</text>
  <line x1="50" y1="92" x2="1350" y2="92" stroke="#e2e8f0" stroke-width="1.5"/>

  <!-- ====================== DATA FLOW PIPELINE BANNER ====================== -->
  <text class="section-label" x="50" y="125">DATA · END-TO-END PIPELINE  (1 ▸ 2 ▸ 3 ▸ 4 ▸ 5 ▸ 6</text>

  <!-- 6 pills, 180 wide, 50 tall, gap 40, starting x=50 -->
  <!-- Stage 1 -->
  <g>
    <rect x="50" y="140" width="180" height="60" rx="10" ry="10" class="s1"/>
    <circle cx="76" cy="170" r="14" fill="#ffffff" opacity="0.22"/>
    <text class="pill-num" x="76" y="175" text-anchor="middle">1</text>
    <text class="pill-title" x="98" y="166">INGEST</text>
    <text class="pill-sub" x="98" y="184">upload · vault watch · API</text>
 </g>
  <line x1="232" y1="170" x2="288" y2="170" stroke="#cbd5e1" stroke-width="3"/>
  <polygon points="288,164 296,170 288,176" fill="#cbd5e1"/>

  <!-- Stage 2 -->
  <g>
    <rect x="300" y="140" width="180" height="60" rx="10" ry="10" class="s2"/>
    <circle cx="326" cy="170" r="14" fill="#ffffff" opacity="0.22"/>
    <text class="pill-num" x="326" y="175" text-anchor="middle">2</text>
    <text class="pill-title" x="348" y="166">EMBED</text>
    <text class="pill-sub" x="348" y="184">gemini-embedding-2 · 768d</text>
 </g>
  <line x1="482" y1="170" x2="538" y2="170" stroke="#cbd5e1" stroke-width="3"/>
  <polygon points="538,164 546,170 538,176" fill="#cbd5e1"/>

  <!-- Stage 3 -->
  <g>
    <rect x="550" y="140" width="180" height="60" rx="10" ry="10" class="s3"/>
    <circle cx="576" cy="170" r="14" fill="#ffffff" opacity="0.22"/>
    <text class="pill-num" x="576" y="175" text-anchor="middle">3</text>
    <text class="pill-title" x="598" y="166">STORE</text>
    <text class="pill-sub" x="598" y="184">Qdrant · workspace-scoped</text>
 </g>
  <line x1="732" y1="170" x2="788" y2="170" stroke="#cbd5e1" stroke-width="3"/>
  <polygon points="788,164 796,170 788,176" fill="#cbd5e1"/>

  <!-- Stage 4 -->
  <g>
    <rect x="800" y="140" width="180" height="60" rx="10" ry="10" class="s4"/>
    <circle cx="826" cy="170" r="14" fill="#ffffff" opacity="0.22"/>
    <text class="pill-num" x="826" y="175" text-anchor="middle">4</text>
    <text class="pill-title" x="848" y="166">RETRIEVE</text>
    <text class="pill-sub" x="848" y="184">5-level priority cascade</text>
 </g>
  <line x1="982" y1="170" x2="1038" y2="170" stroke="#cbd5e1" stroke-width="3"/>
  <polygon points="1038,164 1046,170 1038,176" fill="#cbd5e1"/>

  <!-- Stage 5 -->
  <g>
    <rect x="1050" y="140" width="180" height="60" rx="10" ry="10" class="s5"/>
    <circle cx="1076" cy="170" r="14" fill="#ffffff" opacity="0.22"/>
    <text class="pill-num" x="1076" y="175" text-anchor="middle">5</text>
    <text class="pill-title" x="1098" y="166">REASON</text>
    <text class="pill-sub" x="1098" y="184">Gemini → NVIDIA fallback</text>
 </g>
  <line x1="1232" y1="170" x2="1288" y2="170" stroke="#cbd5e1" stroke-width="3"/>
  <polygon points="1288,164 1296,170 1288,176" fill="#cbd5e1"/>

  <!-- Stage 6 -->
  <g>
    <rect x="1300" y="140" width="50" height="60" rx="10" ry="10" class="s6"/>
 </g>
  <text class="pill-num"   x="1325" y="167" text-anchor="middle">6</text>
  <text class="pill-title" x="1325" y="188" text-anchor="middle">▶</text>

  <!-- ===================== LEVEL 1 · SYSTEM CONTEXT ===================== -->
  <text class="section-label" x="50"  y="240">LEVEL 1 · SYSTEM CONTEXT</text>
  <text class="section-sub"   x="50"  y="258">Who uses the system, what the system is, and what it depends on</text>

  <!-- User -->
  <g>
    <rect x="80"  y="285" width="240" height="120" class="c4-rect c4-stroke"/>
    <text class="box-title" x="100" y="312">[Industrial User</text>
    <text class="box-sub"   x="100" y="330">Engineer / Analyst</text>
    <text class="box-sub"   x="100" y="348">Uploads SOPs, manuals, logs</text>
    <text class="box-sub"   x="100" y="366">asks grounded questions</text>
    <text class="box-mono"  x="100" y="390">persona · knowledge worker</text>
 </g>

  <!-- J.A.R.V.I.S platform -->
  <g>
    <rect x="500" y="285" width="400" height="120" class="s5-soft c4-stroke"/>
    <text class="box-title" x="520" y="312">[J.A.R.V.I.S Platform</text>
    <text class="box-sub"   x="520" y="330">Workspace-isolated Second Brain</text>
    <text class="box-sub"   x="520" y="348">Ingests documents, builds a per-workspace</text>
    <text class="box-sub"   x="520" y="366">vector index + GBrain graph, answers with</text>
    <text class="box-sub"   x="520" y="384">cited evidence and explainable fallbacks</text>
 </g>
  <line x1="320" y1="345" x2="498" y2="345" stroke="#0f172a" stroke-width="1.4" stroke-dasharray="6 4"/>
  <text class="box-mono" x="350" y="335">asks / uploads</text>
  <line x1="902" y1="345" x2="1098" y2="345" stroke="#0f172a" stroke-width="1.4" stroke-dasharray="6 4"/>
  <text class="box-mono" x="950" y="335">HTTPS · JSON</text>

  <!-- External LLMs -->
  <g>
    <rect x="1100" y="265" width="240" height="80"  class="c4-rect c4-stroke"/>
    <text class="box-title" x="1120" y="292">[External LLM Providers</text>
    <text class="box-sub"   x="1120" y="310">Google Gemini 2.5 Flash</text>
    <text class="box-sub"   x="1120" y="328">(embeddings + reasoning</text>
    <rect x="1100" y="355" width="240" height="60"  class="c4-rect c4-stroke"/>
    <text class="box-sub"   x="1120" y="382">NVIDIA Llama 3.1 70B (fallback</text>
    <text class="box-sub"   x="1120" y="400">via integrate.api.nvidia.com</text>
 </g>

  <line x1="1340" y1="430" x2="1340" y2="500" stroke="#cbd5e1"/>
  <text class="section-label" x="50" y="450">LEVEL 2 · CONTAINER VIEW + DATA FLOW</text>
  <text class="section-sub"  x="50" y="468">Process + data-store containers inside the platform. Colored arrows trace the 6 stages of the pipeline</text>

  <!-- ===================== LEVEL 2 · CONTAINER VIEW ===================== -->

  <!--
    Layout grid (y-bands):
      y 490  →  Storage band anchor (postgres, qdrant, redis), left side
      y 490  →  Vault box, far left
      y 490  →  External LLM chips, far right (already drawn above)
      y 540  →  Backend FastAPI container (huge, center-right)
      y 540  →  GBrain sidecar container (right edge, shared netns with backend)
      y 1280 →  Frontend container (Next.js)

    We'll wire arrows between them later.
  -->

  <!-- Vault folder (left top) -->
  <g>
    <rect x="50"  y="500" width="200" height="100" class="c4-rect c4-stroke"/>
    <text class="box-title" x="70"  y="528">[Vault Folder</text>
    <text class="box-mono"  x="70"  y="546">/vault   (JARVIS_VAULT_PATH</text>
    <text class="box-sub"   x="70"  y="564">Drop *.md files. Watchdog</text>
    <text class="box-sub"   x="70"  y="582">indexes into per-folder workspaces</text>
 </g>

  <!-- Storage cluster: PostgreSQL / Qdrant / Redis (stacked, left side, below vault) -->
  <g>
    <!-- PostgreSQL -->
    <rect x="50" y="640" width="200" height="90" class="s3-soft c4-stroke"/>
    <text class="box-title" x="70" y="668">[PostgreSQL 15</text>
    <text class="box-mono"  x="70" y="686">postgres:5432 · jarvis_db</text>
    <text class="box-sub"   x="70" y="704">Users · Workspaces · Conversations</text>
    <text class="box-sub"   x="70" y="722">Documents · QueuedTask · Beliefs</text>

    <!-- Qdrant -->
    <rect x="50" y="745" width="200" height="90" class="s3-soft c4-stroke"/>
    <text class="box-title" x="70" y="773">[Qdrant v1.9</text>
    <text class="box-mono"  x="70" y="791">qdrant:6333 (gRPC :6334</text>
    <text class="box-sub"   x="70" y="809">Collection jarvis_memory</text>
    <text class="box-sub"   x="70" y="827">768d · cosine · per-workspace</text>

    <!-- Redis -->
    <rect x="50" y="850" width="200" height="70" class="c4-rect c4-stroke"/>
    <text class="box-title" x="70" y="878">[Redis 7</text>
    <text class="box-mono"  x="70" y="896">redis:6379</text>
    <text class="box-sub"   x="70" y="914">Locks, rate-limit, job queues</text>
 </g>

  <!-- ============ BACKEND (FastAPI) container ============ -->
  <g>
    <rect x="280" y="500" width="780" height="780" rx="14" ry="14" fill="#fff7ed" class="c4-stroke"/>
    <text class="box-title" x="300" y="528">[Backend · FastAPI  ·  Python 3.11</text>
    <text class="box-mono"  x="300" y="546">jarvis_backend  ·  :8000  ·  /api/v1/*  ·  OpenAPI @ /docs</text>

    <!-- Routers row -->
    <text class="section-label" x="300" y="582">API · Routers</text>
    <g>
      <!-- 7 router chips -->
      <rect x="300"  y="595" width="100" height="48" rx="6" ry="6" fill="#ffffff" class="c4-stroke"/>
      <text class="box-title" x="350" y="618" text-anchor="middle">auth</text>
      <text class="box-mono"  x="350" y="634" text-anchor="middle">/auth</text>

      <rect x="410"  y="595" width="110" height="48" rx="6" ry="6" fill="#ffffff" class="c4-stroke"/>
      <text class="box-title" x="465" y="618" text-anchor="middle">workspaces</text>
      <text class="box-mono"  x="465" y="634" text-anchor="middle">/workspaces</text>

      <rect x="530"  y="595" width="110" height="48" rx="6" ry="6" fill="#ffffff" class="c4-stroke"/>
      <text class="box-title" x="585" y="618" text-anchor="middle">documents</text>
      <text class="box-mono"  x="585" y="634" text-anchor="middle">/…/upload</text>

      <rect x="650"  y="595" width="90"  height="48" rx="6" ry="6" fill="#ffffff" class="c4-stroke"/>
      <text class="box-title" x="695" y="618" text-anchor="middle">chat</text>
      <text class="box-mono"  x="695" y="634" text-anchor="middle">/…/chat</text>

      <rect x="750"  y="595" width="90"  height="48" rx="6" ry="6" fill="#ffffff" class="c4-stroke"/>
      <text class="box-title" x="795" y="618" text-anchor="middle">brain</text>
      <text class="box-mono"  x="795" y="634" text-anchor="middle">/brain/*</text>

      <rect x="850"  y="595" width="90"  height="48" rx="6" ry="6" fill="#ffffff" class="c4-stroke"/>
      <text class="box-title" x="895" y="618" text-anchor="middle">timeline</text>
      <text class="box-mono"  x="895" y="634" text-anchor="middle">/timeline</text>

      <rect x="950"  y="595" width="90"  height="48" rx="6" ry="6" fill="#ffffff" class="c4-stroke"/>
      <text class="box-title" x="995" y="618" text-anchor="middle">hud</text>
      <text class="box-mono"  x="995" y="634" text-anchor="middle">/hud</text>
   </g>

    <!-- Services row -->
    <text class="section-label" x="300" y="690">Services · Domain Logic</text>

    <g>
      <!-- Document Processor -->
      <rect x="300" y="705" width="170" height="70" rx="6" ry="6" class="s1-soft s1-line"/>
      <text class="box-title" x="312" y="728">DocumentProcessor</text>
      <text class="box-mono"  x="312" y="746">PyPDF2 · python-docx</text>
      <text class="box-mono"  x="312" y="762">chunk 1000 / overlap 200</text>

      <!-- Markdown Parser -->
      <rect x="480" y="705" width="150" height="70" rx="6" ry="6" class="s1-soft s1-line"/>
      <text class="box-title" x="492" y="728">MarkdownParser</text>
      <text class="box-mono"  x="492" y="746">frontmatter · wikilinks</text>
      <text class="box-mono"  x="492" y="762">semantic section split</text>

      <!-- Qdrant Service -->
      <rect x="640" y="705" width="170" height="70" rx="6" ry="6" class="s3-soft s3-line"/>
      <text class="box-title" x="652" y="728">QdrantService</text>
      <text class="box-mono"  x="652" y="746">insert_chunks · search</text>
      <text class="box-mono"  x="652" y="762">workspace_id filter</text>

      <!-- LLM Provider -->
      <rect x="820" y="705" width="220" height="70" rx="6" ry="6" class="s5-soft s5-line"/>
      <text class="box-title" x="832" y="728">LLMProvider (Gemini + NVIDIA</text>
      <text class="box-mono"  x="832" y="746">generate_text · generate_embeddings</text>
      <text class="box-mono"  x="832" y="762">tenacity retry / backoff · fallback chain</text>
   </g>

    <!-- Background workers -->
    <text class="section-label" x="300" y="810">Background · Started on lifespan</text>
    <g>
      <rect x="300" y="825" width="240" height="60" rx="6" ry="6" class="s1-soft s1-line"/>
      <text class="box-title" x="312" y="848">VaultFileWatcher</text>
      <text class="box-mono"  x="312" y="866">watchdog (PollingObserver) → QueuedTask</text>

      <rect x="560" y="825" width="240" height="60" rx="6" ry="6" class="s1-soft s1-line"/>
      <text class="box-title" x="572" y="848">BatchProcessor</text>
      <text class="box-mono"  x="572" y="866">drains queue · chunks · embeds · upserts</text>

      <rect x="820" y="825" width="220" height="60" rx="6" ry="6" class="s4-soft s4-line"/>
      <text class="box-title" x="832" y="848">ReflectionEngine</text>
      <text class="box-mono"  x="832" y="866">periodic insights · Memory rows</text>
   </g>

    <!-- MCP client (links backend -> GBrain sidecar) -->
    <text class="section-label" x="300" y="920">Connectors</text>
    <g>
      <rect x="300" y="935" width="380" height="60" rx="6" ry="6" class="c4-rect c4-stroke"/>
      <text class="box-title" x="312" y="958">GBrainMCPClient  (Streamable-HTTP</text>
      <text class="box-mono"  x="312" y="976">http://127.0.0.1:8001/mcp  ·  Bearer-key bootstrap  ·  tools: search · think</text>

      <rect x="700" y="935" width="340" height="60" rx="6" ry="6" class="c4-rect c4-stroke"/>
      <text class="box-title" x="712" y="958">Auth & Security</text>
      <text class="box-mono"  x="712" y="976">JWT  ·  bcrypt  ·  CORS  ·  workspace ACL</text>
   </g>

    <!-- Internal priority cascade (retrieval logic) -->
    <text class="section-label" x="300" y="1030">Retrieval · Priority Cascade  (chat.py</text>
    <g>
      <!-- P1..P5 -->
      <rect x="300" y="1045" width="740" height="38" rx="6" ry="6" class="c4-rect c4-stroke"/>
      <text class="box-title" x="312" y="1070">P1 ▸ Qdrant vector search</text>
      <text class="box-mono"  x="540" y="1070">workspace-filtered · top-k=5</text>
      <text class="box-mono"  x="770" y="1070">evidence_type: source_document</text>

      <rect x="300" y="1088" width="740" height="38" rx="6" ry="6" class="c4-rect c4-stroke"/>
      <text class="box-title" x="312" y="1113">P2 ▸ GBrain synthesis (markdown graph</text>
      <text class="box-mono"  x="600" y="1113">vault-wide Recall</text>

      <rect x="300" y="1131" width="740" height="38" rx="6" ry="6" class="c4-rect c4-stroke"/>
      <text class="box-title" x="312" y="1156">P3 ▸ PKM Entities</text>
      <text class="box-mono"  x="540" y="1156">SQL ORDER BY confidence DESC LIMIT 10</text>

      <rect x="300" y="1174" width="740" height="38" rx="6" ry="6" class="c4-rect c4-stroke"/>
      <text class="box-title" x="312" y="1199">P4 ▸ Beliefs</text>
      <text class="box-mono"  x="540" y="1199">SQL ORDER BY confidence DESC LIMIT 5</text>

      <rect x="300" y="1217" width="740" height="38" rx="6" ry="6" class="c4-rect c4-stroke"/>
      <text class="box-title" x="312" y="1242">P5 ▸ Reflections</text>
      <text class="box-mono"  x="540" y="1242">SQL ORDER BY created_at DESC LIMIT 3 · type='reflection</text>
   </g>

    <!-- Plain HTTP /api/v1 strip on lower edge -->
    <text class="section-label" x="300" y="1270">REST surface  ·  /api/v1/*</text>
    <rect x="300" y="1278" width="200" height="0" fill="none"/>
 </g>

  <!-- ============ GBrain sidecar container (right column) ============ -->
  <g>
    <rect x="1080" y="500" width="290" height="320" rx="14" ry="14" fill="#f0f9ff" class="c4-stroke" stroke-dasharray="6 4"/>
    <text class="box-title" x="1100" y="528">[GBrain Sidecar</text>
    <text class="box-mono"  x="1100" y="546">bun · github:garrytan/gbrain</text>
    <text class="box-sub"   x="1100" y="564">network_mode: "service:backend</text>
    <text class="box-sub"   x="1100" y="582">(shares backend's netns ⇒ 127.0.0.1:8001</text>

    <text class="section-label" x="1100" y="608">Inside the container</text>
    <text class="box-mono"  x="1100" y="626">· pglite-backed memory store</text>
    <text class="box-mono"  x="1100" y="644">  --no-embedding (Gemini does it</text>
    <text class="box-mono"  x="1100" y="662">· HTTP API server on :8001</text>
    <text class="box-mono"  x="1100" y="680">· Streamable-HTTP MCP server</text>
    <text class="box-mono"  x="1100" y="698">· /admin/bootstrap-token auth</text>
    <text class="box-mono"  x="1100" y="716">· Persistent volume gbrain_data</text>

    <text class="section-label" x="1100" y="742">Vault mount</text>
    <text class="box-mono"  x="1100" y="760">/vault  →  ${JARVIS_VAULT_PATH</text>
    <text class="box-mono"  x="1100" y="778">Recovers markdown knowledge graph</text>
    <text class="box-mono"  x="1100" y="796">(PKM extraction runs here</text>
 </g>

  <!-- ============ Frontend container (next.js) ============ -->
  <g>
    <rect x="280" y="1310" width="780" height="320" rx="14" ry="14" fill="#f0fdf4" class="c4-stroke"/>
    <text class="box-title" x="300" y="1338">[Frontend · Next.js 13 App Router · TS · Tailwind</text>
    <text class="box-mono"  x="300" y="1356">jarvis_frontend  ·  :3000  ·  NEXT_PUBLIC_API_URL=http://localhost:8000/api/v1</text>

    <text class="section-label" x="300" y="1394">Pages</text>
    <g>
      <rect x="300" y="1408" width="90"  height="42" rx="6" ry="6" fill="#ffffff" class="c4-stroke"/>
      <text class="box-title" x="345" y="1429" text-anchor="middle">/login</text>
      <text class="box-mono"  x="345" y="1445" text-anchor="middle">auth</text>

      <rect x="400" y="1408" width="90"  height="42" rx="6" ry="6" fill="#ffffff" class="c4-stroke"/>
      <text class="box-title" x="445" y="1429" text-anchor="middle">/register</text>
      <text class="box-mono"  x="445" y="1445" text-anchor="middle">signup</text>

      <rect x="500" y="1408" width="90"  height="42" rx="6" ry="6" fill="#ffffff" class="c4-stroke"/>
      <text class="box-title" x="545" y="1429" text-anchor="middle">/dashboard</text>
      <text class="box-mono"  x="545" y="1445" text-anchor="middle">overview</text>

      <rect x="600"  y="1408" width="100" height="42" rx="6" ry="6" class="s6-soft s6-line"/>
      <text class="box-title" x="650" y="1429" text-anchor="middle">/chat</text>
      <text class="box-mono"  x="650" y="1445" text-anchor="middle">RAG UX</text>

      <rect x="710"  y="1408" width="100" height="42" rx="6" ry="6" class="s1-soft s1-line"/>
      <text class="box-title" x="760" y="1429" text-anchor="middle">/documents</text>
      <text class="box-mono"  x="760" y="1445" text-anchor="middle">upload</text>

      <rect x="820"  y="1408" width="90"  height="42" rx="6" ry="6" fill="#ffffff" class="c4-stroke"/>
      <text class="box-title" x="865" y="1429" text-anchor="middle">/beliefs</text>
      <text class="box-mono"  x="865" y="1445" text-anchor="middle">view</text>

      <rect x="920"  y="1408" width="90"  height="42" rx="6" ry="6" fill="#ffffff" class="c4-stroke"/>
      <text class="box-title" x="965" y="1429" text-anchor="middle">/graph</text>
      <text class="box-mono"  x="965" y="1445" text-anchor="middle">PKM</text>

      <rect x="1020" y="1408" width="32"  height="42" rx="6" ry="6" fill="#ffffff" class="c4-stroke"/>
      <text class="box-title" x="1036" y="1426" text-anchor="middle" font-size="11">…</text>
   </g>

    <text class="section-label" x="300" y="1484">Client libs · components</text>
    <text class="box-mono" x="300" y="1502">lib/api.ts · useAuth hook · WorkspaceContext · FileUpload component · ChatStream component</text>
    <text class="box-mono" x="300" y="1520">Tailwind tokens · Next/Link routing · Cookie-backed JWT</text>

    <text class="box-sub"   x="300" y="1550">All requests hit the backend at NEXT_PUBLIC_API_URL; 401 ⇒ redirect to /</text>
    <text class="box-sub"   x="300" y="1568">Optimistic UI for upload progress; SSE/JSON for chat completion</text>
    <text class="box-mono"  x="300" y="1596">Renders assistant markdown with: reasoning · quote · source attribution · priority badge</text>
 </g>

  <!-- ============ External LLM chips repeated (top-right) ============ -->
  <g>
    <rect x="1080" y="850" width="290" height="170" rx="14" ry="14" fill="#fff" class="c4-stroke"/>
    <text class="box-title" x="1100" y="878">[External LLM Providers</text>
    <text class="box-sub"   x="1100" y="896">Reachable from the backend only</text>

    <rect x="1100" y="910" width="250" height="44" rx="6" ry="6" class="s5-soft s5-line"/>
    <text class="box-title" x="1112" y="932">Gemini 2.5 Flash</text>
    <text class="box-mono"  x="1112" y="948">api.generativeai.google  ·  text + embeddings</text>

    <rect x="1100" y="960" width="250" height="44" rx="6" ry="6" class="s5-soft s5-line"/>
    <text class="box-title" x="1112" y="982">NVIDIA Llama 3.1 70B</text>
    <text class="box-mono"  x="1112" y="998">integrate.api.nvidia.com  ·  text fallback only</text>
 </g>

  <!-- ============ DATA FLOW ARROWS (the 6 stages) ============ -->
  <!-- 1 Ingest: Vault + Frontend doc upload → DocumentProcessor -->
  <g>
    <path d="M250,550 C295,550 295,705 300,705" fill="none" class="s1-line" stroke-width="3.5" marker-end="url(#ah1)"/>
    <path d="M595,1450 C595,1100 480,795 470,775" fill="none" class="s1-line" stroke-width="3.5" marker-end="url(#ah1)"/>
    <!-- labels -->
    <rect x="232" y="612" width="58" height="20" rx="6" ry="6" class="s1"/>
    <text class="label-stage" x="261" y="626" text-anchor="middle">1 INGEST</text>
 </g>

  <!-- 2 Embed: DocumentProcessor → LLMProvider -->
  <g>
    <path d="M470,775 C580,775 700,755 820,740" fill="none" class="s2-line" stroke-width="3.5" marker-end="url(#ah2)"/>
    <rect x="610" y="744" width="58" height="20" rx="6" ry="6" class="s2"/>
    <text class="label-stage" x="639" y="758" text-anchor="middle">2 EMBED</text>
 </g>

  <!-- 3 Store (Qdrant): LLM → Qdrant; Document row → PG -->
  <g>
    <path d="M725,740 C500,820 380,870 250,790" fill="none" class="s3-line" stroke-width="3.5" marker-end="url(#ah3)"/>
    <rect x="370" y="780" width="58" height="20" rx="6" ry="6" class="s3"/>
    <text class="label-stage" x="399" y="794" text-anchor="middle">3 STORE</text>

    <!-- also DB write (document row) -->
    <path d="M385,720 C260,710 240,690 150,685" fill="none" stroke="#475569" stroke-width="2" marker-end="url(#ah-mute)" stroke-dasharray="4 3"/>
    <text class="box-mono" x="222" y="697">Document row</text>
 </g>

  <!-- 4 Retrieve: Qdrant + GBrain + DB → assembled context inside chat router -->
  <g>
    <!-- Qdrant → chat -->
    <path d="M150,790 C170,940 230,1080 300,1064" fill="none" class="s4-line" stroke-width="3.5" marker-end="url(#ah4)"/>
    <rect x="186" y="930" width="70" height="20" rx="6" ry="6" class="s4"/>
    <text class="label-stage" x="221" y="944" text-anchor="middle">4 RETRIEVE</text>

    <!-- GBrain → chat via MCP client -->
    <path d="M1080,990 C1050,1100 1040,1078 1040,1088" fill="none" class="s4-line" stroke-width="3.5" marker-end="url(#ah4)"/>
    <path d="M680,955 C700,1030 720,1040 730,1045" fill="none" class="s4-line" stroke-width="3" marker-end="url(#ah4)"/>

    <!-- Postgres → chat (P3..P5 entities) -->
    <path d="M250,685 C260,1080 280,1100 300,1112" fill="none" stroke="#475569" stroke-width="2" marker-end="url(#ah-mute)" stroke-dasharray="4 3"/>
 </g>

  <!-- 5 Reason: chat router → LLM provider → Gemini/NVIDIA -->
  <g>
    <path d="M695,1217 C720,1280 820,1080 830,775" fill="none" class="s5-line" stroke-width="3.5" marker-end="url(#ah5)"/>
    <rect x="746" y="1140" width="64" height="20" rx="6" ry="6" class="s5"/>
    <text class="label-stage" x="778" y="1154" text-anchor="middle">5 REASON</text>

    <!-- backend -> Gemini -->
    <path d="M1040,720 C1080,920 1120,920 1170,940" fill="none" class="s5-line" stroke-width="3.5" marker-end="url(#ah5)"/>
    <!-- backend -> NVIDIA -->
    <path d="M1040,735 C1100,950 1140,980 1170,990" fill="none" class="s5-line" stroke-width="3" marker-end="url(#ah5)" stroke-dasharray="6 4"/>
 </g>

  <!-- 6 Render: chat response → Frontend /chat -->
  <g>
    <path d="M670,1310 C670,1410 660,1428 650,1428" fill="none" class="s6-line" stroke-width="3.5" marker-end="url(#ah6)"/>
    <rect x="490" y="1310" width="80" height="20" rx="6" ry="6" class="s6"/>
    <text class="label-stage" x="530" y="1324" text-anchor="middle">6 RENDER</text>
 </g>

  <!-- Frontend -> Backend baseline (HTTP) -->
  <path d="M650,1408 C650,1380 660,1320 660,1310" fill="none" stroke="#94a3b8" stroke-width="1.5" stroke-dasharray="4 3" marker-end="url(#ah-grey-stroke)"/>

  <!-- ===================== LEGEND & TECH STACK ===================== -->
  <line x1="50" y1="1660" x2="1350" y2="1660" stroke="#e2e8f0" stroke-width="1.5"/>

  <text class="section-label" x="50" y="1688">LEGEND  ·  PIPELINE STAGES</text>

  <g>
    <rect x="50"  y="1700" width="170" height="56" rx="10" ry="10" class="s1"/>
    <text class="pill-num"   x="70" y="1728">1</text>
    <text class="pill-title" x="92" y="1724">INGEST</text>
    <text class="pill-sub"   x="92" y="1742">file · upload · vault</text>

    <rect x="230" y="1700" width="170" height="56" rx="10" ry="10" class="s2"/>
    <text class="pill-num"   x="250" y="1728">2</text>
    <text class="pill-title" x="272" y="1724">EMBED</text>
    <text class="pill-sub"   x="272" y="1742">gemini-embedding-2</text>

    <rect x="410" y="1700" width="170" height="56" rx="10" ry="10" class="s3"/>
    <text class="pill-num"   x="430" y="1728">3</text>
    <text class="pill-title" x="452" y="1724">STORE</text>
    <text class="pill-sub"   x="452" y="1742">Qdrant</text>

    <rect x="590" y="1700" width="170" height="56" rx="10" ry="10" class="s4"/>
    <text class="pill-num"   x="610" y="1728">4</text>
    <text class="pill-title" x="632" y="1724">RETRIEVE</text>
    <text class="pill-sub"   x="632" y="1742">Qdrant ▸ GBrain ▸ SQL</text>

    <rect x="770" y="1700" width="170" height="56" rx="10" ry="10" class="s5"/>
    <text class="pill-num"   x="790" y="1728">5</text>
    <text class="pill-title" x="812" y="1724">REASON</text>
    <text class="pill-sub"   x="812" y="1742">Gemini → NVIDIA</text>

    <rect x="950" y="1700" width="170" height="56" rx="10" ry="10" class="s6"/>
    <text class="pill-num"   x="970" y="1728">6</text>
    <text class="pill-title" x="992" y="1724">RENDER</text>
    <text class="pill-sub"   x="992" y="1742">Next.js dashboard</text>
 </g>

  <text class="section-label" x="50" y="1792">TECH STACK</text>
  <text class="label-tech" x="50"  y="1816">▪ Next.js 13 (TS · Tailwind)   ▪ FastAPI 3.11 (uvicorn)   ▪ PostgreSQL 15   ▪ Qdrant v1.9   ▪ Redis 7   ▪ GBrain (bun</text>
  <text class="label-tech" x="50"  y="1836">▪ Google Gemini 2.5 Flash (text)   ▪ Gemini Embedding 2 (768d)   ▪ NVIDIA Llama 3.1 70B (fallback)   ▪ Model-Context-Protocol (Streamable-HTTP</text>
  <text class="label-tech" x="50"  y="1856">▪ Alembic migrations   ▪ Tenacity retry/backoff   ▪ PollingObserver / watchdog   ▪ python-docx · PyPDF2 · markdown-it</text>

  <line x1="50" y1="1876" x2="1350" y2="1876" stroke="#e2e8f0" stroke-width="1"/>

  <text class="section-sub" x="50"  y="1894">Source: docs/architecture/README.md · Maintainer: Aayush Sahu · Generated 2026-06-23 — companion to SPRINT_PLAN.md</text>
</svg>
